<svg width="230" height="80" viewBox="0 0 230 80" fill="none" xmlns="http://www.w3.org/2000/svg">
<path d="M32.2 71.2529V60.5229H34.1849V64.9101H39.0335V60.5229H41.0184V71.2529H39.0335V66.4775H34.1849V71.2529H32.2ZM46.3328 71.2529V60.5229H52.8367L52.7562 62.0976H48.3177V64.8661H52.5364V66.4409H48.3177V69.6708H52.9173L52.8514 71.2529H46.3328ZM56.5911 71.2529L60.5389 60.5156H62.6995L66.5887 71.2529H64.5526L63.4905 68.2206H59.7332L58.6639 71.2529H56.5911ZM60.2313 66.7411H62.9852C62.1063 63.9238 61.6546 62.4687 61.6302 62.3759L60.2313 66.7411ZM70.658 71.2529V60.5229H72.6429V69.6708H77.1326L77.074 71.2529H70.658ZM82.6302 71.2529V62.1122H79.5028V60.5229H87.7352V62.1122H84.6224V71.2529H82.6302ZM91.8924 71.2529V60.5229H93.8773V64.9101H98.7259V60.5229L100.711 60.5229V71.2529H98.7259V66.4775H93.8773V71.2529H91.8924Z" fill="#087258"/>
<path d="M154.009 69.763C152.442 69.763 151.199 69.2698 150.281 68.2835C149.363 67.2972 148.904 65.9349 148.904 64.1966C148.904 62.5462 149.383 61.223 150.34 60.2269C151.302 59.2259 152.559 58.7254 154.112 58.7254C155.367 58.7254 156.429 59.0159 157.298 59.597L156.675 61.0984C155.84 60.5858 155 60.3294 154.156 60.3294C153.169 60.3294 152.388 60.6859 151.812 61.3987C151.241 62.1068 150.955 63.0589 150.955 64.2552C150.955 65.4954 151.231 66.4549 151.783 67.1336C152.339 67.8123 153.13 68.1517 154.156 68.1517C155.054 68.1517 155.945 67.9271 156.829 67.4778L157.093 69.0306C156.272 69.5189 155.245 69.763 154.009 69.763ZM160.686 69.6092L164.634 58.8719H166.794L170.683 69.6092H168.647L167.585 66.577H163.828L162.759 69.6092H160.686ZM164.326 65.0975H167.08C166.201 62.2801 165.749 60.825 165.725 60.7322L164.326 65.0975ZM174.702 69.6092V58.8499H178.679C179.221 58.8499 179.689 58.8743 180.085 58.9232C180.485 58.972 180.864 59.0623 181.22 59.1942C181.581 59.3211 181.872 59.4944 182.092 59.7142C182.316 59.9339 182.492 60.222 182.619 60.5784C182.751 60.93 182.817 61.3475 182.817 61.8309C182.817 63.2567 182.17 64.1942 180.876 64.6434C181.14 64.9412 181.467 65.493 181.857 66.2986L183.454 69.6092H181.286L180.034 66.804C179.56 65.7982 179.267 65.2025 179.155 65.0169C179.072 65.012 178.796 65.0096 178.327 65.0096L176.664 64.9949V69.6092H174.702ZM178.854 63.574C179.616 63.574 180.163 63.4398 180.495 63.1712C180.827 62.8978 180.993 62.4608 180.993 61.8602C180.993 61.3328 180.825 60.9446 180.488 60.6956C180.151 60.4466 179.636 60.3221 178.942 60.3221H176.664V63.5667C176.738 63.5667 177.101 63.5692 177.756 63.574C178.41 63.574 178.776 63.574 178.854 63.574ZM187.875 69.6092V58.8792H194.379L194.298 60.4539H189.86V63.2225H194.079V64.7972H189.86V68.0272H194.459L194.393 69.6092H187.875Z" fill="#16636C"/>
<path d="M23.0796 47.1147H91.1993C94.907 47.1147 98.2617 44.916 99.7412 41.5162L105.3 28.7426C107.115 24.5716 113.2 25.1312 114.224 29.5632L122.463 65.2276C122.609 65.8595 123.539 65.7535 123.539 65.1049V65.1049C123.539 64.9943 123.573 64.8862 123.636 64.7952L135.357 47.8273C139.091 42.4215 145.243 39.1946 151.813 39.1946H201.747" stroke="#3FBCBC" stroke-width="20"/>
<path d="M34.6194 47.1147H90.1905C93.9219 47.1147 97.3215 44.9711 98.9299 41.604L107.152 24.3922C108.709 21.1327 113.537 21.8188 114.124 25.3831L120.673 65.1237C120.752 65.6024 121.458 65.5447 121.458 65.0595V65.0595C121.458 64.9784 121.483 64.8994 121.529 64.833L133.502 47.7264C137.245 42.3792 143.361 39.1946 149.887 39.1946H192.595" stroke="white" stroke-width="2"/>
<path d="M52.2837 24.6V18.5H64.6837V6.1H70.7837V18.5H83.1837V24.6H70.7837V37H64.6837V24.6H52.2837Z" fill="#EB5757"/>
</svg>

